<?xml version="1.0" standalone="no"?><!DOCTYPE svg PUBLIC "-//W3C//DTD SVG 1.1//EN" "http://www.w3.org/Graphics/SVG/1.1/DTD/svg11.dtd"><svg t="1546070499374" class="icon" style="" viewBox="0 0 1024 1024" version="1.1" xmlns="http://www.w3.org/2000/svg" p-id="1690" xmlns:xlink="http://www.w3.org/1999/xlink" width="200" height="200"><defs><style type="text/css"></style></defs><path d="M950.72 609.76l-88.48-88.48a30.88 30.88 0 0 0-44.16 0L752 587.36 558.08 781.12a34.4 34.4 0 0 0-8 13.28L515.52 912l-2.24 7.84A32 32 0 0 0 544 960a35.68 35.68 0 0 0 8.96-1.28l125.28-36.96a27.52 27.52 0 0 0 13.28-8l1.76-1.76 25.92-25.76L740.48 864l11.52-11.52 48-48 128-128 22.08-22.24a31.04 31.04 0 0 0 0.64-44.48zM668.64 891.84L600 912 544 928l4.96-16 32-108.8L608 775.68 696.32 864zM800 760.8l-81.44 81.44-88.64-88.64 166.08-166.08 4 4.48 84.48 84.64z m106.56-106.72l-88.48-88.64L840.16 544 928 631.84zM281.28 173.76l57.92 115.68 57.92-115.68h54.56l-73.6 133.6h49.12v25.44h-64v32h64v25.6h-64V448h-48v-57.6h-64v-25.28h64v-32h-63.52v-25.76h48.8l-73.76-133.6z" fill="#1296db" p-id="1691"></path><path d="M144 576m24 0l384 0q24 0 24 24l0 0q0 24-24 24l-384 0q-24 0-24-24l0 0q0-24 24-24Z" fill="#1296db" p-id="1692"></path><path d="M144 720m24 0l176 0q24 0 24 24l0 0q0 24-24 24l-176 0q-24 0-24-24l0 0q0-24 24-24Z" fill="#1296db" p-id="1693"></path><path d="M827.68 228.64a16 16 0 0 0-22.72 0l-113.12 113.12-56.48-56.48a16 16 0 0 0-22.72 0 16 16 0 0 0 0 22.56l68 68a16 16 0 0 0 6.4 3.68 16.96 16.96 0 0 0 10.88 0 19.04 19.04 0 0 0 5.28-3.52l124.48-124.48a16 16 0 0 0 0-22.88z" fill="#1296db" p-id="1694"></path><path d="M960 128v328a24 24 0 0 1-48 0V128a16 16 0 0 0-16-16H128a16 16 0 0 0-16 16v768a16 16 0 0 0 16 16h328a24 24 0 0 1 0 48H128a64 64 0 0 1-64-64V128a64 64 0 0 1 64-64h768a64 64 0 0 1 64 64z" fill="#1296db" p-id="1695"></path></svg>